<?xml version="1.0" standalone="no"?>
<!DOCTYPE svg PUBLIC "-//W3C//DTD SVG 20010904//EN"
 "http://www.w3.org/TR/2001/REC-SVG-20010904/DTD/svg10.dtd">
<svg version="1.0" xmlns="http://www.w3.org/2000/svg"
 width="700.000000pt" height="700.000000pt" viewBox="0 0 700.000000 700.000000"
 preserveAspectRatio="xMidYMid meet">
<metadata>
Created by potrace 1.14, written by Peter Selinger 2001-2017
</metadata>
<g transform="translate(0.000000,700.000000) scale(0.100000,-0.100000)"
fill="#000000" stroke="none">
<path d="M3508 6356 c-1 -2 -70 -6 -153 -10 -144 -5 -188 -10 -340 -36 -719
-123 -1379 -542 -1807 -1150 -54 -76 -169 -260 -163 -260 2 0 -12 -27 -31 -61
-18 -33 -34 -62 -34 -64 0 -2 -15 -36 -34 -77 -118 -255 -209 -601 -233 -888
-14 -162 -8 -519 11 -615 2 -11 6 -42 10 -70 38 -284 173 -672 328 -946 112
-197 199 -317 369 -508 335 -378 837 -685 1339 -820 382 -102 838 -123 1200
-56 14 3 41 7 60 10 51 8 255 61 325 84 302 99 585 246 829 431 209 158 399
348 554 554 259 344 459 804 519 1196 2 14 5 34 7 45 2 11 7 47 11 80 4 33 9
69 12 80 9 39 10 431 2 515 -39 394 -146 759 -311 1064 -78 142 -79 145 -144
243 -491 739 -1317 1212 -2179 1249 -66 3 -125 7 -132 9 -6 2 -13 2 -15 1z
m247 -250 c301 -40 497 -89 720 -181 80 -33 266 -125 320 -158 286 -175 504
-363 695 -599 375 -464 573 -1023 572 -1618 -1 -135 -3 -177 -18 -305 -45
-389 -187 -773 -410 -1107 -152 -228 -271 -360 -510 -568 -57 -50 -221 -163
-324 -224 -269 -159 -511 -248 -870 -321 -8 -1 -42 -6 -75 -10 -33 -4 -91 -10
-130 -15 -75 -9 -447 -5 -505 5 -19 3 -80 13 -135 21 -126 21 -115 18 -215 43
-179 46 -338 105 -510 191 -139 69 -137 68 -264 151 -233 152 -423 327 -620
570 -138 169 -297 457 -384 695 -64 174 -90 280 -137 564 -21 123 -21 450 -1
610 30 239 75 419 159 635 278 719 872 1274 1618 1514 183 59 344 90 544 107
44 3 81 7 83 9 5 5 351 -3 397 -9z"/>
<path d="M2123 5403 c-10 -4 -8 -391 1 -401 4 -4 552 -7 1217 -7 l1209 -1 15
-21 c9 -12 21 -28 28 -35 8 -7 44 -51 82 -98 38 -47 106 -131 153 -188 76 -93
83 -105 70 -120 -28 -32 -66 -77 -228 -267 -173 -203 -259 -302 -275 -319 -6
-6 -44 -51 -85 -101 -41 -49 -78 -92 -81 -95 -3 -3 -35 -39 -70 -80 -35 -41
-67 -76 -71 -78 -5 -2 -8 -8 -8 -13 0 -8 113 -151 232 -294 31 -38 189 -230
201 -245 7 -8 32 -40 57 -70 25 -30 50 -62 57 -70 17 -21 115 -141 135 -165
99 -118 138 -169 137 -178 0 -7 -80 -109 -178 -227 l-177 -215 -600 0 -599 0
-2 180 c-1 99 -2 189 -2 200 -1 12 -83 104 -211 233 l-210 213 0 -625 0 -626
913 0 912 0 175 216 c96 119 180 222 186 228 9 9 308 377 336 413 7 9 -34 66
-139 194 -81 100 -204 249 -271 333 -68 83 -141 171 -162 196 -20 25 -83 101
-139 170 l-101 124 24 26 c37 40 553 642 691 804 32 39 72 81 87 94 15 13 28
27 28 32 0 7 -90 121 -168 215 -16 19 -221 270 -327 400 -162 198 -219 265
-229 266 -22 3 -2606 4 -2613 2z"/>
<path d="M2119 4582 c-1 -8 -1 -2824 0 -2858 1 -21 5 -21 204 -20 l202 1 5
1229 5 1230 490 1 c270 0 493 -1 498 -3 6 -3 -38 -63 -86 -117 -10 -11 -62
-74 -115 -140 -53 -66 -99 -122 -102 -125 -3 -3 -45 -53 -93 -113 -56 -67 -85
-112 -81 -120 8 -12 64 -82 119 -148 16 -20 46 -55 65 -80 19 -24 61 -75 93
-114 32 -38 63 -77 70 -85 149 -183 347 -425 375 -459 20 -24 48 -59 62 -77
l25 -32 269 -1 268 -1 -43 51 c-24 29 -66 80 -94 114 -108 133 -130 160 -135
165 -3 3 -44 52 -90 110 -105 131 -113 140 -125 154 -6 6 -71 85 -145 176 -74
91 -145 176 -157 190 -13 14 -23 29 -23 35 0 5 31 46 68 91 157 189 757 925
764 937 5 11 -210 13 -1143 14 -632 1 -1149 -2 -1150 -5z"/>
</g>
</svg>
