<?xml version="1.0" encoding="UTF-8"?>
<svg id="Layer_1" data-name="Layer 1" xmlns="http://www.w3.org/2000/svg" viewBox="0 0 595.28 595.28">
  <defs>
    <style>
      .cls-1 {
        fill: #20c997;
      }

      .cls-2 {
        fill: none;
        stroke: #20c997;
        stroke-miterlimit: 10;
        stroke-width: 20px;
      }
    </style>
  </defs>
  <g>
    <rect class="cls-1" x="180.11" y="205.21" width="34.94" height="245.23"/>
    <rect class="cls-1" x="274.34" y="41.41" width="34.94" height="223.41" transform="translate(444.93 -138.7) rotate(90)"/>
    <rect class="cls-1" x="403.31" y="136.14" width="34.94" height="96.8" transform="translate(863.36 61.13) rotate(140.74)"/>
    <rect class="cls-1" x="387.27" y="181.87" width="36.46" height="137.89" transform="translate(260.76 -203.49) rotate(40.59)"/>
    <rect class="cls-1" x="387.13" y="264.06" width="35.94" height="140.86" transform="translate(-120.24 331.86) rotate(-39.26)"/>
    <rect class="cls-1" x="401.6" y="355.72" width="35.94" height="95.24" transform="translate(350.25 -174.52) rotate(39.29)"/>
    <rect class="cls-1" x="307.87" y="355.96" width="35.94" height="155.11" transform="translate(759.36 107.68) rotate(90)"/>
    <polyline class="cls-1" points="248.29 345.15 248.29 451.49 284.23 451.49 284.23 381.47"/>
    <polyline class="cls-1" points="376.36 205.21 180.11 205.21 180.11 241.15 309.34 241.15"/>
    <polyline class="cls-1" points="376.36 205.21 286.99 314.45 259.17 291.69 318.02 219.76"/>
    <polyline class="cls-1" points="373.27 378.42 285.14 270.6 258.09 292.71 328 378.25"/>
  </g>
  <circle class="cls-2" cx="297.64" cy="293.06" r="228"/>
</svg>